<svg width="169" height="46" viewBox="0 0 169 46" fill="none" xmlns="http://www.w3.org/2000/svg">
<path d="M13.2931 0.272727V17H11.3329L2.21783 3.86648H2.05448V17H0.02891V0.272727H1.98914L11.1369 13.4389H11.3002V0.272727H13.2931ZM34.2199 8.63636C34.2199 10.4006 33.9014 11.9252 33.2643 13.2102C32.6272 14.4953 31.7533 15.4863 30.6425 16.1832C29.5317 16.8802 28.263 17.2287 26.8364 17.2287C25.4098 17.2287 24.1411 16.8802 23.0303 16.1832C21.9195 15.4863 21.0456 14.4953 20.4085 13.2102C19.7714 11.9252 19.4529 10.4006 19.4529 8.63636C19.4529 6.87216 19.7714 5.34754 20.4085 4.0625C21.0456 2.77746 21.9195 1.78646 23.0303 1.08949C24.1411 0.392518 25.4098 0.0440335 26.8364 0.0440335C28.263 0.0440335 29.5317 0.392518 30.6425 1.08949C31.7533 1.78646 32.6272 2.77746 33.2643 4.0625C33.9014 5.34754 34.2199 6.87216 34.2199 8.63636ZM32.2597 8.63636C32.2597 7.18797 32.0174 5.96555 31.5328 4.96911C31.0536 3.97266 30.4029 3.21851 29.5807 2.70668C28.764 2.19484 27.8492 1.93892 26.8364 1.93892C25.8236 1.93892 24.9061 2.19484 24.0839 2.70668C23.2672 3.21851 22.6165 3.97266 22.1319 4.96911C21.6527 5.96555 21.4131 7.18797 21.4131 8.63636C21.4131 10.0848 21.6527 11.3072 22.1319 12.3036C22.6165 13.3001 23.2672 14.0542 24.0839 14.5661C24.9061 15.0779 25.8236 15.3338 26.8364 15.3338C27.8492 15.3338 28.764 15.0779 29.5807 14.5661C30.4029 14.0542 31.0536 13.3001 31.5328 12.3036C32.0174 11.3072 32.2597 10.0848 32.2597 8.63636ZM40.3858 17V0.272727H46.0378C47.3446 0.272727 48.4173 0.495975 49.2559 0.942471C50.0944 1.38352 50.7151 1.99065 51.1181 2.76385C51.521 3.53705 51.7225 4.41643 51.7225 5.40199C51.7225 6.38755 51.521 7.26148 51.1181 8.02379C50.7151 8.7861 50.0971 9.38506 49.264 9.82067C48.4309 10.2508 47.3664 10.4659 46.0705 10.4659H41.4966V8.63636H46.0051C46.8981 8.63636 47.6169 8.50568 48.1614 8.24432C48.7113 7.98295 49.1088 7.61269 49.3539 7.13352C49.6043 6.64891 49.7296 6.07173 49.7296 5.40199C49.7296 4.73224 49.6043 4.1469 49.3539 3.64595C49.1034 3.145 48.7032 2.7584 48.1532 2.48615C47.6033 2.20845 46.8764 2.0696 45.9725 2.0696H42.4114V17H40.3858ZM48.2594 9.4858L52.3759 17H50.0236L45.9725 9.4858H48.2594ZM63.0197 17H57.8577V0.272727H63.2484C64.871 0.272727 66.2595 0.607599 67.4138 1.27734C68.5682 1.94164 69.453 2.89725 70.0683 4.14418C70.6836 5.38565 70.9913 6.87216 70.9913 8.60369C70.9913 10.3461 70.6809 11.8462 70.0602 13.104C69.4394 14.3564 68.5355 15.3202 67.3485 15.9954C66.1615 16.6651 64.7185 17 63.0197 17ZM59.8833 15.2031H62.889C64.272 15.2031 65.4182 14.9363 66.3276 14.4027C67.2369 13.8691 67.9148 13.1095 68.3613 12.1239C68.8078 11.1384 69.031 9.96496 69.031 8.60369C69.031 7.25331 68.8105 6.09079 68.3695 5.11612C67.9284 4.13601 67.2696 3.38459 66.3929 2.86186C65.5162 2.33369 64.4245 2.0696 63.1177 2.0696H59.8833V15.2031ZM79.1746 0.272727V17H77.149V0.272727H79.1746ZM99.4561 5.5H97.4306C97.3108 4.91738 97.1011 4.40554 96.8017 3.96449C96.5076 3.52344 96.1482 3.15317 95.7235 2.85369C95.3043 2.54877 94.8387 2.32008 94.3269 2.16761C93.815 2.01515 93.2814 1.93892 92.726 1.93892C91.7132 1.93892 90.7957 2.19484 89.9735 2.70668C89.1568 3.21851 88.5061 3.97266 88.0215 4.96911C87.5423 5.96555 87.3027 7.18797 87.3027 8.63636C87.3027 10.0848 87.5423 11.3072 88.0215 12.3036C88.5061 13.3001 89.1568 14.0542 89.9735 14.5661C90.7957 15.0779 91.7132 15.3338 92.726 15.3338C93.2814 15.3338 93.815 15.2576 94.3269 15.1051C94.8387 14.9527 95.3043 14.7267 95.7235 14.4272C96.1482 14.1223 96.5076 13.7493 96.8017 13.3082C97.1011 12.8617 97.3108 12.3499 97.4306 11.7727H99.4561C99.3037 12.6276 99.026 13.3926 98.623 14.0678C98.2201 14.743 97.7192 15.3175 97.1202 15.7912C96.5212 16.2595 95.8488 16.6161 95.1028 16.8612C94.3623 17.1062 93.57 17.2287 92.726 17.2287C91.2994 17.2287 90.0307 16.8802 88.9199 16.1832C87.8091 15.4863 86.9352 14.4953 86.2981 13.2102C85.661 11.9252 85.3425 10.4006 85.3425 8.63636C85.3425 6.87216 85.661 5.34754 86.2981 4.0625C86.9352 2.77746 87.8091 1.78646 88.9199 1.08949C90.0307 0.392518 91.2994 0.0440335 92.726 0.0440335C93.57 0.0440335 94.3623 0.166548 95.1028 0.411576C95.8488 0.656605 96.5212 1.01598 97.1202 1.4897C97.7192 1.95798 98.2201 2.52971 98.623 3.2049C99.026 3.87464 99.3037 4.63968 99.4561 5.5ZM114.718 17V0.272727H120.37C121.677 0.272727 122.75 0.495975 123.588 0.942471C124.427 1.38352 125.047 1.99065 125.45 2.76385C125.853 3.53705 126.055 4.41643 126.055 5.40199C126.055 6.38755 125.853 7.26148 125.45 8.02379C125.047 8.7861 124.429 9.38506 123.596 9.82067C122.763 10.2508 121.699 10.4659 120.403 10.4659H115.829V8.63636H120.337C121.23 8.63636 121.949 8.50568 122.494 8.24432C123.044 7.98295 123.441 7.61269 123.686 7.13352C123.937 6.64891 124.062 6.07173 124.062 5.40199C124.062 4.73224 123.937 4.1469 123.686 3.64595C123.436 3.145 123.035 2.7584 122.485 2.48615C121.935 2.20845 121.209 2.0696 120.305 2.0696H116.744V17H114.718ZM122.592 9.4858L126.708 17H124.356L120.305 9.4858H122.592ZM135.228 17L130.654 0.272727H132.713L136.208 13.8963H136.372L139.933 0.272727H142.22L145.781 13.8963H145.944L149.44 0.272727H151.498L146.924 17H144.833L141.142 3.67045H141.011L137.319 17H135.228ZM156.165 17H154.042L160.184 0.272727H162.275L168.417 17H166.293L161.295 2.91903H161.164L156.165 17ZM156.949 10.4659H165.509V12.2628H156.949V10.4659ZM41.2183 36.5283C41.2944 36.3506 41.4002 36.1855 41.5356 36.0332C41.6711 35.8809 41.8276 35.7497 42.0054 35.6396C42.1831 35.5296 42.3778 35.445 42.5894 35.3857C42.8009 35.3265 43.0168 35.2969 43.2368 35.2969C43.6007 35.2969 43.9351 35.3815 44.2397 35.5508C44.5529 35.7116 44.8237 35.9359 45.0522 36.2236C45.2808 36.5029 45.4585 36.8372 45.5854 37.2266C45.7209 37.6159 45.7886 38.0348 45.7886 38.4834C45.7886 39.0081 45.6997 39.4948 45.522 39.9434C45.3527 40.3835 45.1157 40.7686 44.811 41.0986C44.5063 41.4202 44.1466 41.6742 43.7319 41.8604C43.3257 42.0465 42.8813 42.1396 42.3989 42.1396C42.1027 42.1396 41.8107 42.11 41.5229 42.0508C41.2352 42 40.9771 41.9323 40.7485 41.8477C40.5285 41.763 40.3465 41.6657 40.2026 41.5557C40.0672 41.4456 39.9995 41.3314 39.9995 41.2129V33.6973C39.9995 33.3926 39.953 33.1937 39.8599 33.1006C39.7752 32.999 39.589 32.9482 39.3013 32.9482C39.2505 32.9482 39.2039 32.9525 39.1616 32.9609C39.1278 32.9609 39.0897 32.9652 39.0474 32.9736V32.7324L39.479 32.6309C39.8175 32.5547 40.1053 32.4785 40.3423 32.4023C40.5793 32.3177 40.8501 32.2161 41.1548 32.0977L41.2183 32.1357V36.5283ZM41.2183 40.9971C41.2183 41.0902 41.2563 41.179 41.3325 41.2637C41.4087 41.3398 41.5103 41.4118 41.6372 41.4795C41.7726 41.5387 41.925 41.5895 42.0942 41.6318C42.2635 41.6657 42.4412 41.6826 42.6274 41.6826C43.2284 41.6826 43.6896 41.4626 44.0112 41.0225C44.3413 40.5824 44.5063 39.9603 44.5063 39.1562C44.5063 38.8854 44.4852 38.623 44.4429 38.3691C44.409 38.1068 44.354 37.8613 44.2778 37.6328C44.2101 37.4043 44.1255 37.2012 44.0239 37.0234C43.9224 36.8457 43.8123 36.7018 43.6938 36.5918C43.55 36.4564 43.3892 36.3633 43.2114 36.3125C43.0337 36.2533 42.8475 36.2236 42.6528 36.2236C42.4666 36.2236 42.2847 36.2533 42.1069 36.3125C41.9377 36.3717 41.7853 36.4521 41.6499 36.5537C41.5229 36.6468 41.4172 36.7611 41.3325 36.8965C41.2563 37.0234 41.2183 37.1589 41.2183 37.3027V40.9971ZM53.1392 35.7031C52.9699 35.7201 52.8302 35.7751 52.7202 35.8682C52.6187 35.9613 52.5213 36.1221 52.4282 36.3506L50.2065 42.2666C50.0034 42.7913 49.8088 43.2357 49.6226 43.5996C49.4364 43.972 49.2459 44.2725 49.0513 44.501C48.8651 44.7295 48.6662 44.8945 48.4546 44.9961C48.243 45.1061 48.0103 45.1611 47.7563 45.1611C47.4432 45.1611 47.1851 45.0807 46.9819 44.9199C46.7873 44.7676 46.6899 44.5687 46.6899 44.3232C46.6899 44.137 46.7492 43.9847 46.8677 43.8662C46.9862 43.7562 47.1343 43.7012 47.312 43.7012C47.4305 43.7012 47.5532 43.7096 47.6802 43.7266C47.8071 43.752 47.9341 43.79 48.061 43.8408C48.1457 43.8831 48.2176 43.9085 48.2769 43.917C48.3361 43.9255 48.3869 43.9297 48.4292 43.9297C48.5392 43.9297 48.6619 43.8704 48.7974 43.752C48.9328 43.6419 49.0555 43.4938 49.1655 43.3076C49.2248 43.1976 49.2882 43.0622 49.356 42.9014C49.4237 42.749 49.4871 42.5967 49.5464 42.4443C49.6056 42.292 49.6522 42.1481 49.686 42.0127C49.7284 41.8857 49.7495 41.7969 49.7495 41.7461C49.7495 41.6276 49.6903 41.4414 49.5718 41.1875C49.4618 40.9251 49.3052 40.6162 49.1021 40.2607C49.0597 40.2015 49.0216 40.138 48.9878 40.0703C48.9539 40.0026 48.9243 39.9222 48.8989 39.8291L48.8481 39.7148L47.1978 36.1475C47.0962 35.902 46.8507 35.7454 46.4614 35.6777V35.4746H49.4448V35.7031C49.1317 35.7201 48.9116 35.7581 48.7847 35.8174C48.6662 35.8682 48.6069 35.957 48.6069 36.084C48.6069 36.1771 48.6154 36.2702 48.6323 36.3633C48.6577 36.4479 48.7 36.541 48.7593 36.6426L50.4224 40.2988L51.8188 36.2998C51.8696 36.2152 51.895 36.139 51.895 36.0713C51.895 35.9528 51.8315 35.8639 51.7046 35.8047C51.5776 35.737 51.4041 35.7031 51.1841 35.7031V35.4746H53.1392V35.7031ZM63.9175 38.6611C63.8752 38.3734 63.8201 38.1406 63.7524 37.9629C63.6932 37.7767 63.6043 37.6328 63.4858 37.5312C63.3758 37.4297 63.2235 37.362 63.0288 37.3281C62.8426 37.2858 62.6056 37.2646 62.3179 37.2646H60.2231V40.4385C60.2231 40.6924 60.2358 40.8997 60.2612 41.0605C60.2951 41.2214 60.3586 41.3525 60.4517 41.4541C60.5532 41.5472 60.6886 41.6149 60.8579 41.6572C61.0356 41.6911 61.2642 41.7165 61.5435 41.7334V42H57.4937V41.7334C57.7645 41.7165 57.9803 41.6868 58.1411 41.6445C58.3104 41.6022 58.4373 41.5303 58.522 41.4287C58.6151 41.3187 58.6743 41.1748 58.6997 40.9971C58.7336 40.8109 58.7505 40.5654 58.7505 40.2607V33.9893C58.7505 33.7354 58.7336 33.528 58.6997 33.3672C58.6743 33.2064 58.6151 33.0794 58.522 32.9863C58.4289 32.8932 58.2977 32.8255 58.1284 32.7832C57.9676 32.7409 57.756 32.7113 57.4937 32.6943V32.4023H65.187L65.2124 34.4844H64.8696C64.8019 34.1543 64.7257 33.8919 64.6411 33.6973C64.5565 33.4941 64.4338 33.3376 64.2729 33.2275C64.1206 33.1175 63.9132 33.0456 63.6509 33.0117C63.397 32.9779 63.0669 32.9609 62.6606 32.9609H60.6929C60.4897 32.9609 60.3586 32.9906 60.2993 33.0498C60.2485 33.109 60.2231 33.2445 60.2231 33.4561V36.668H62.3179C62.6056 36.668 62.8426 36.651 63.0288 36.6172C63.2235 36.5833 63.3758 36.5156 63.4858 36.4141C63.6043 36.3125 63.6932 36.1729 63.7524 35.9951C63.8201 35.8174 63.8752 35.5846 63.9175 35.2969H64.2603V38.6611H63.9175ZM68.1704 42C68.1704 43.041 67.9588 43.8281 67.5356 44.3613C67.1209 44.8945 66.5116 45.1611 65.7075 45.1611C65.3182 45.1611 64.9966 45.085 64.7427 44.9326C64.4803 44.7887 64.3491 44.5983 64.3491 44.3613C64.3491 44.2005 64.4084 44.0651 64.5269 43.9551C64.6453 43.8535 64.7892 43.8027 64.9585 43.8027C65.077 43.8027 65.1912 43.8366 65.3013 43.9043C65.4028 43.972 65.5171 44.0905 65.644 44.2598C65.7625 44.4121 65.8641 44.5179 65.9487 44.5771C66.0418 44.6364 66.1434 44.666 66.2534 44.666C66.4819 44.666 66.647 44.5814 66.7485 44.4121C66.7909 44.3444 66.8247 44.264 66.8501 44.1709C66.8755 44.0863 66.8924 43.9762 66.9009 43.8408C66.9178 43.7139 66.9263 43.5531 66.9263 43.3584C66.9347 43.1722 66.939 42.9395 66.939 42.6602V37.1631C66.939 36.8499 66.9051 36.6257 66.8374 36.4902C66.7697 36.3548 66.6554 36.2871 66.4946 36.2871C66.4185 36.2871 66.3296 36.2913 66.228 36.2998C66.1349 36.3083 66.0291 36.321 65.9106 36.3379L65.8472 36.3506V36.1348C66.0588 36.0671 66.2534 36.0036 66.4312 35.9443C66.6089 35.8766 66.7866 35.8132 66.9644 35.7539C67.1421 35.6947 67.3198 35.6312 67.4976 35.5635C67.6838 35.4958 67.8826 35.4196 68.0942 35.335L68.1704 35.373V42ZM67.4468 32.0977C67.6499 32.0977 67.8192 32.1738 67.9546 32.3262C68.0985 32.4701 68.1704 32.6436 68.1704 32.8467C68.1704 33.0583 68.1027 33.236 67.9673 33.3799C67.8403 33.5153 67.6668 33.583 67.4468 33.583C67.2352 33.583 67.0575 33.5153 66.9136 33.3799C66.7782 33.236 66.7104 33.0583 66.7104 32.8467C66.7104 32.6436 66.7824 32.4701 66.9263 32.3262C67.0701 32.1738 67.2437 32.0977 67.4468 32.0977ZM73.0327 35.335C73.4982 35.335 73.9256 35.4154 74.3149 35.5762C74.7043 35.737 75.0386 35.9655 75.3179 36.2617C75.6056 36.5495 75.8299 36.8923 75.9907 37.29C76.1515 37.6878 76.2319 38.1279 76.2319 38.6104C76.2319 39.1182 76.1473 39.5879 75.978 40.0195C75.8172 40.4427 75.5929 40.8151 75.3052 41.1367C75.0174 41.4499 74.6746 41.6953 74.2769 41.873C73.8875 42.0508 73.4644 42.1396 73.0073 42.1396C72.5503 42.1396 72.1271 42.055 71.7378 41.8857C71.3485 41.7165 71.0142 41.4795 70.7349 41.1748C70.4556 40.8701 70.2355 40.5104 70.0747 40.0957C69.9139 39.681 69.8335 39.2282 69.8335 38.7373C69.8335 38.238 69.9097 37.7809 70.062 37.3662C70.2228 36.943 70.4429 36.5833 70.7222 36.2871C71.0015 35.9824 71.3358 35.7497 71.7251 35.5889C72.1229 35.4196 72.5588 35.335 73.0327 35.335ZM72.8169 35.7412C72.3091 35.7412 71.9028 35.9486 71.5981 36.3633C71.2935 36.778 71.1411 37.3281 71.1411 38.0137C71.1411 38.5299 71.1961 39.0335 71.3062 39.5244C71.4162 40.0068 71.5728 40.4385 71.7759 40.8193C71.9282 41.1156 72.1313 41.3441 72.3853 41.5049C72.6392 41.6657 72.9142 41.7461 73.2104 41.7461C73.7437 41.7461 74.1584 41.5133 74.4546 41.0479C74.7593 40.5739 74.9116 39.9264 74.9116 39.1055C74.9116 38.4876 74.8228 37.9121 74.645 37.3789C74.4673 36.8457 74.2261 36.4437 73.9214 36.1729C73.7606 36.0205 73.5913 35.9105 73.4136 35.8428C73.2358 35.7751 73.0369 35.7412 72.8169 35.7412ZM76.7651 36.1348C76.9767 36.0586 77.1714 35.9909 77.3491 35.9316C77.5269 35.8639 77.6961 35.8005 77.8569 35.7412C78.0262 35.6735 78.1912 35.61 78.3521 35.5508C78.5213 35.4831 78.7033 35.4111 78.8979 35.335L78.9868 35.3604V36.6934C79.1646 36.431 79.3254 36.2152 79.4692 36.0459C79.6131 35.8682 79.7528 35.7285 79.8882 35.627C80.0236 35.5169 80.1548 35.4408 80.2817 35.3984C80.4172 35.3561 80.561 35.335 80.7134 35.335C80.9588 35.335 81.1535 35.4069 81.2974 35.5508C81.4412 35.6862 81.5132 35.8682 81.5132 36.0967C81.5132 36.3083 81.4624 36.4733 81.3608 36.5918C81.2593 36.7018 81.1239 36.7568 80.9546 36.7568C80.8615 36.7568 80.7684 36.7399 80.6753 36.7061C80.5907 36.6637 80.4891 36.5833 80.3706 36.4648C80.2944 36.3971 80.2225 36.3464 80.1548 36.3125C80.0871 36.2786 80.0321 36.2617 79.9897 36.2617C79.8882 36.2617 79.7782 36.304 79.6597 36.3887C79.5496 36.4648 79.4438 36.5622 79.3423 36.6807C79.2407 36.7992 79.1561 36.9261 79.0884 37.0615C79.0207 37.1969 78.9868 37.3239 78.9868 37.4424V40.7051C78.9868 40.9082 79.0037 41.0775 79.0376 41.2129C79.0715 41.3483 79.1349 41.4583 79.228 41.543C79.3211 41.6191 79.4481 41.6784 79.6089 41.7207C79.7697 41.763 79.9728 41.7884 80.2183 41.7969V42H76.7271V41.7969C76.9556 41.7546 77.1375 41.7122 77.2729 41.6699C77.4168 41.6191 77.5226 41.5599 77.5903 41.4922C77.6665 41.4245 77.7131 41.3356 77.73 41.2256C77.7554 41.1071 77.7681 40.959 77.7681 40.7812V37.1631C77.7681 36.8415 77.73 36.6172 77.6538 36.4902C77.5776 36.3548 77.4507 36.2871 77.2729 36.2871C77.1799 36.2871 77.0952 36.2913 77.019 36.2998C76.9513 36.3083 76.8667 36.3252 76.7651 36.3506V36.1348ZM86.4263 42.1016V41.1621C86.1808 41.5176 85.91 41.7715 85.6138 41.9238C85.326 42.0677 84.979 42.1396 84.5728 42.1396C84.1665 42.1396 83.7983 42.0677 83.4683 41.9238C83.1382 41.7715 82.8547 41.5599 82.6177 41.2891C82.3892 41.0098 82.2072 40.6797 82.0718 40.2988C81.9448 39.918 81.8813 39.4948 81.8813 39.0293C81.8813 38.513 81.9618 38.0306 82.1226 37.582C82.2834 37.1335 82.4992 36.7399 82.77 36.4014C83.0409 36.0628 83.3582 35.7962 83.7222 35.6016C84.0946 35.4069 84.4881 35.3096 84.9028 35.3096C85.1991 35.3096 85.4572 35.3561 85.6772 35.4492C85.8973 35.5339 86.147 35.6947 86.4263 35.9316V33.6973C86.4263 33.401 86.3797 33.2021 86.2866 33.1006C86.202 32.999 86.0243 32.9482 85.7534 32.9482C85.6942 32.9482 85.6392 32.9525 85.5884 32.9609C85.5461 32.9609 85.4953 32.9652 85.436 32.9736V32.7197C85.6646 32.6605 85.8719 32.6097 86.0581 32.5674C86.2443 32.5166 86.4178 32.4701 86.5786 32.4277C86.7479 32.377 86.9087 32.3262 87.061 32.2754C87.2218 32.2246 87.3911 32.1654 87.5688 32.0977L87.645 32.1357V40.3496C87.645 40.6882 87.6831 40.9124 87.7593 41.0225C87.8439 41.124 88.0174 41.1748 88.2798 41.1748C88.3221 41.1748 88.3729 41.1748 88.4321 41.1748C88.4998 41.1663 88.5633 41.1621 88.6226 41.1621V41.3906L86.4897 42.1396L86.4263 42.1016ZM86.4263 37.1631C86.4263 36.9769 86.384 36.7992 86.2993 36.6299C86.2231 36.4521 86.1174 36.2956 85.9819 36.1602C85.8465 36.0247 85.6857 35.9189 85.4995 35.8428C85.3218 35.7581 85.1356 35.7158 84.9409 35.7158C84.6701 35.7158 84.4204 35.7835 84.1919 35.9189C83.9718 36.0459 83.7814 36.2321 83.6206 36.4775C83.4683 36.7145 83.3498 37.0023 83.2651 37.3408C83.1805 37.6709 83.1382 38.0391 83.1382 38.4453C83.1382 38.8939 83.1847 39.3001 83.2778 39.6641C83.3709 40.028 83.5021 40.3369 83.6714 40.5908C83.8491 40.8447 84.0607 41.0436 84.3062 41.1875C84.5516 41.3229 84.8267 41.3906 85.1313 41.3906C85.5884 41.3906 85.9438 41.2383 86.1978 40.9336C86.3501 40.7643 86.4263 40.6289 86.4263 40.5273V37.1631ZM100.556 42H92.7358V41.7334C92.9982 41.7165 93.2098 41.6868 93.3706 41.6445C93.5399 41.6022 93.6668 41.5345 93.7515 41.4414C93.8446 41.3483 93.908 41.2214 93.9419 41.0605C93.9757 40.8997 93.9927 40.6924 93.9927 40.4385V33.9893C93.9927 33.7354 93.9757 33.528 93.9419 33.3672C93.9165 33.2064 93.8573 33.0794 93.7642 32.9863C93.6711 32.8932 93.5399 32.8255 93.3706 32.7832C93.2098 32.7409 92.9982 32.7113 92.7358 32.6943V32.4023H100.429L100.455 34.4844H100.112C100.044 34.1543 99.9679 33.8919 99.8833 33.6973C99.7987 33.4941 99.6759 33.3376 99.5151 33.2275C99.3628 33.1175 99.1554 33.0456 98.8931 33.0117C98.6392 32.9779 98.3091 32.9609 97.9028 32.9609H95.9478C95.7531 32.9609 95.6219 32.9906 95.5542 33.0498C95.495 33.109 95.4653 33.2445 95.4653 33.4561V36.668H97.687C97.9832 36.668 98.2244 36.651 98.4106 36.6172C98.5968 36.5833 98.745 36.5199 98.855 36.4268C98.9735 36.3252 99.0623 36.1855 99.1216 36.0078C99.1808 35.8301 99.2358 35.5931 99.2866 35.2969H99.6294V38.6611H99.2866C99.2358 38.3564 99.1808 38.1152 99.1216 37.9375C99.0623 37.7513 98.9777 37.6117 98.8677 37.5186C98.7576 37.417 98.6095 37.3493 98.4233 37.3154C98.2371 37.2816 97.9917 37.2646 97.687 37.2646H95.4653V40.8447C95.4653 40.9886 95.4738 41.0944 95.4907 41.1621C95.5076 41.2298 95.5373 41.2806 95.5796 41.3145C95.6473 41.3568 95.8081 41.3949 96.062 41.4287C96.3244 41.4541 96.6333 41.4668 96.9888 41.4668H97.395C97.9113 41.4668 98.3429 41.4414 98.6899 41.3906C99.0454 41.3398 99.3459 41.2425 99.5913 41.0986C99.8452 40.9548 100.065 40.7601 100.251 40.5146C100.438 40.2692 100.62 39.9476 100.797 39.5498H101.216L100.556 42ZM105.736 37.4551C105.575 36.8034 105.376 36.3421 105.139 36.0713C104.902 35.8005 104.576 35.665 104.162 35.665C103.823 35.665 103.552 35.7581 103.349 35.9443C103.146 36.1221 103.044 36.359 103.044 36.6553C103.044 37.07 103.252 37.4001 103.667 37.6455L105.228 38.5723C105.668 38.8346 105.981 39.097 106.167 39.3594C106.354 39.6133 106.447 39.9222 106.447 40.2861C106.447 40.54 106.392 40.7812 106.282 41.0098C106.172 41.2383 106.024 41.4372 105.837 41.6064C105.66 41.7673 105.448 41.8984 105.203 42C104.957 42.0931 104.695 42.1396 104.416 42.1396C104.263 42.1396 104.098 42.127 103.92 42.1016C103.743 42.0846 103.548 42.0508 103.336 42C103.167 41.9577 103.036 41.9281 102.943 41.9111C102.85 41.8942 102.761 41.8857 102.676 41.8857C102.592 41.8857 102.528 41.8984 102.486 41.9238C102.444 41.9492 102.397 41.9958 102.346 42.0635H102.156V39.8037H102.384C102.469 40.1761 102.566 40.4893 102.676 40.7432C102.786 40.9971 102.913 41.2044 103.057 41.3652C103.201 41.526 103.37 41.6445 103.565 41.7207C103.76 41.7884 103.98 41.8223 104.225 41.8223C104.606 41.8223 104.902 41.7292 105.114 41.543C105.334 41.3568 105.444 41.1029 105.444 40.7812C105.444 40.3496 105.19 39.9899 104.682 39.7021L103.844 39.2197C103.531 39.042 103.264 38.8727 103.044 38.7119C102.833 38.5511 102.659 38.3903 102.524 38.2295C102.389 38.0602 102.291 37.8867 102.232 37.709C102.173 37.5312 102.143 37.3408 102.143 37.1377C102.143 36.8753 102.19 36.6341 102.283 36.4141C102.384 36.194 102.52 36.0036 102.689 35.8428C102.867 35.682 103.078 35.5592 103.324 35.4746C103.569 35.39 103.84 35.3477 104.136 35.3477C104.475 35.3477 104.801 35.4069 105.114 35.5254C105.292 35.6016 105.427 35.6396 105.52 35.6396C105.554 35.6396 105.579 35.6312 105.596 35.6143C105.613 35.5973 105.655 35.5592 105.723 35.5L105.736 35.4746H105.914L105.964 37.4551H105.736ZM110.738 35.9316H109.265V40.0957C109.265 40.5612 109.324 40.8955 109.443 41.0986C109.561 41.2933 109.752 41.3906 110.014 41.3906C110.183 41.3906 110.332 41.3568 110.458 41.2891C110.585 41.2129 110.734 41.0775 110.903 40.8828L111.081 41.0605C110.624 41.7799 110.04 42.1396 109.329 42.1396C108.474 42.1396 108.046 41.526 108.046 40.2988V35.9316H107.285C107.251 35.9232 107.234 35.8936 107.234 35.8428C107.234 35.7581 107.314 35.665 107.475 35.5635C107.856 35.3434 108.326 34.8271 108.884 34.0146C108.927 33.9469 108.973 33.8835 109.024 33.8242C109.083 33.7565 109.134 33.6846 109.176 33.6084C109.21 33.6084 109.231 33.6211 109.24 33.6465C109.257 33.6719 109.265 33.7227 109.265 33.7988V35.4746H110.738V35.9316ZM116.413 40.4766C116.413 40.7982 116.442 41.0225 116.501 41.1494C116.561 41.2679 116.675 41.3271 116.844 41.3271C117.039 41.3271 117.25 41.2383 117.479 41.0605V41.4287C117.234 41.6995 117.018 41.8857 116.832 41.9873C116.645 42.0889 116.43 42.1396 116.184 42.1396C115.888 42.1396 115.668 42.0592 115.524 41.8984C115.389 41.7292 115.304 41.4499 115.27 41.0605C114.83 41.4414 114.445 41.7165 114.115 41.8857C113.785 42.055 113.463 42.1396 113.15 42.1396C112.693 42.1396 112.32 41.9958 112.033 41.708C111.753 41.4202 111.614 41.0479 111.614 40.5908C111.614 40.3623 111.656 40.1338 111.741 39.9053C111.834 39.6683 111.965 39.4779 112.134 39.334C112.287 39.1986 112.426 39.0843 112.553 38.9912C112.689 38.8896 112.862 38.7881 113.074 38.6865C113.285 38.5765 113.56 38.4538 113.899 38.3184C114.237 38.1829 114.686 38.001 115.245 37.7725V36.8457C115.245 36.4479 115.147 36.1475 114.953 35.9443C114.766 35.7412 114.496 35.6396 114.14 35.6396C113.844 35.6396 113.594 35.7116 113.391 35.8555C113.196 35.9909 113.099 36.1559 113.099 36.3506C113.099 36.4268 113.108 36.5241 113.125 36.6426C113.15 36.7611 113.163 36.8584 113.163 36.9346C113.163 37.1038 113.095 37.2477 112.959 37.3662C112.833 37.4847 112.684 37.5439 112.515 37.5439C112.346 37.5439 112.198 37.4847 112.071 37.3662C111.952 37.2393 111.893 37.0911 111.893 36.9219C111.893 36.7357 111.944 36.5452 112.045 36.3506C112.155 36.1559 112.304 35.9824 112.49 35.8301C112.684 35.6608 112.943 35.5296 113.264 35.4365C113.594 35.3434 113.95 35.2969 114.331 35.2969C114.771 35.2969 115.139 35.373 115.435 35.5254C115.74 35.6693 115.972 35.8724 116.133 36.1348C116.235 36.304 116.307 36.5029 116.349 36.7314C116.391 36.9515 116.413 37.252 116.413 37.6328V40.4766ZM115.245 38.1279C114.805 38.2887 114.428 38.4453 114.115 38.5977C113.81 38.7415 113.56 38.8939 113.366 39.0547C113.18 39.207 113.044 39.3721 112.959 39.5498C112.875 39.7275 112.833 39.9222 112.833 40.1338V40.1973C112.833 40.3496 112.858 40.4977 112.909 40.6416C112.959 40.777 113.027 40.8955 113.112 40.9971C113.205 41.0986 113.311 41.179 113.429 41.2383C113.548 41.2975 113.67 41.3271 113.797 41.3271C113.95 41.3271 114.119 41.2975 114.305 41.2383C114.5 41.1706 114.682 41.0902 114.851 40.9971C115.02 40.904 115.126 40.8066 115.168 40.7051C115.219 40.6035 115.245 40.4427 115.245 40.2227V38.1279ZM121.211 35.9316H119.739V40.0957C119.739 40.5612 119.798 40.8955 119.917 41.0986C120.035 41.2933 120.225 41.3906 120.488 41.3906C120.657 41.3906 120.805 41.3568 120.932 41.2891C121.059 41.2129 121.207 41.0775 121.376 40.8828L121.554 41.0605C121.097 41.7799 120.513 42.1396 119.802 42.1396C118.947 42.1396 118.52 41.526 118.52 40.2988V35.9316H117.758C117.724 35.9232 117.708 35.8936 117.708 35.8428C117.708 35.7581 117.788 35.665 117.949 35.5635C118.33 35.3434 118.799 34.8271 119.358 34.0146C119.4 33.9469 119.447 33.8835 119.498 33.8242C119.557 33.7565 119.608 33.6846 119.65 33.6084C119.684 33.6084 119.705 33.6211 119.713 33.6465C119.73 33.6719 119.739 33.7227 119.739 33.7988V35.4746H121.211V35.9316ZM127.699 39.7275C127.394 40.5231 126.979 41.124 126.455 41.5303C125.938 41.9365 125.329 42.1396 124.626 42.1396C124.212 42.1396 123.835 42.0635 123.497 41.9111C123.167 41.7588 122.883 41.543 122.646 41.2637C122.409 40.9844 122.227 40.6458 122.1 40.248C121.973 39.8503 121.91 39.4017 121.91 38.9023C121.91 38.3691 121.982 37.8825 122.125 37.4424C122.278 37.0023 122.485 36.6257 122.748 36.3125C123.018 35.9909 123.34 35.7412 123.712 35.5635C124.085 35.3857 124.495 35.2969 124.944 35.2969C125.325 35.2969 125.672 35.3688 125.985 35.5127C126.306 35.6566 126.577 35.8597 126.797 36.1221C126.89 36.2406 126.967 36.359 127.026 36.4775C127.094 36.596 127.149 36.7272 127.191 36.8711C127.242 37.015 127.284 37.1758 127.318 37.3535C127.352 37.5312 127.386 37.7344 127.419 37.9629H122.963C122.98 38.4284 123.018 38.8135 123.078 39.1182C123.145 39.4144 123.251 39.7021 123.395 39.9814C123.81 40.7601 124.419 41.1494 125.223 41.1494C125.689 41.1494 126.091 41.0352 126.429 40.8066C126.776 40.5781 127.123 40.1888 127.47 39.6387L127.699 39.7275ZM125.947 37.4805C125.854 36.8542 125.701 36.4225 125.49 36.1855C125.287 35.9401 124.965 35.8174 124.525 35.8174C124.076 35.8174 123.725 35.9486 123.471 36.2109C123.226 36.4733 123.065 36.8965 122.989 37.4805H125.947Z" fill="white"/>
</svg>
