<svg width="435" height="157" viewBox="0 0 435 157" fill="none" xmlns="http://www.w3.org/2000/svg">
<path d="M323.5 34.5C319.9 36.5 316.333 33.6667 315 32L307 34.5V57C307 59.4 314.667 72.6667 318.5 79L323.5 65.5L328.5 50.5L333.5 40.5L331 28C330 29.3333 327.1 32.5 323.5 34.5Z" fill="white"/>
<path d="M432.679 123.761C432.679 127.47 432.87 126.995 431.609 128.017C430.941 128.559 430.105 127.47 428.433 127.47L410.63 125.993C408.959 125.993 407.98 124.042 407.256 123.5C406.587 122.909 406.033 123.554 406.033 122.076L407.036 16.5768C407.036 15.1482 407.315 14.0645 407.872 13.3256C410.379 10.0745 413.89 6.65094 418.403 3.05498C419.239 2.46386 419.964 2.1683 420.576 2.1683C421.245 2.1683 421.942 2.46386 422.666 3.05498C425.118 4.92685 427.179 6.72483 428.851 8.44892C430.523 10.1238 431.972 11.7493 433.197 13.3256C433.755 14.1138 434.033 15.1975 434.033 16.5768L432.679 123.761Z" fill="white"/>
<path fill-rule="evenodd" clip-rule="evenodd" d="M361.764 127.545C366.38 130.729 371.954 132.321 378.485 132.321C383.641 132.321 387.766 131.758 390.859 130.631C394.002 129.504 398.5 128.299 400.504 126.736C403.5 125.299 405.861 123.968 406.499 122.989V104.69C405.419 107.237 398.569 109.344 396.015 111.01C393.511 112.676 390.049 113.508 385.63 113.508C381.407 113.508 378.018 111.843 375.465 108.511C372.911 105.18 371.635 100.036 371.635 93.0787C371.635 86.3667 373.157 81.0265 376.201 77.0581C379.246 73.0898 383.813 71.1056 389.902 71.1056C393.192 71.1056 398.125 71.7688 400.062 72.1344C402 72.5 405.714 73.4082 406.499 73.8981L408 54.7986C407.165 54.5536 401.732 54.0562 399.768 53.7623C397.852 53.4683 392.922 53.3214 389.975 53.3214C381.382 53.3214 373.918 54.7421 367.583 57.5837C361.298 60.4253 356.412 64.8836 352.925 70.9586C349.488 76.9847 347.769 84.8724 347.769 94.6219C347.769 102.02 348.948 108.56 351.305 114.243C353.711 119.878 357.198 124.311 361.764 127.545ZM431.464 123.135L407.015 122.989L411.582 128.867C412.122 129.504 412.687 129.945 413.276 130.19C413.914 130.386 414.626 130.484 415.412 130.484L427.802 130.631C428.785 130.631 429.267 130.324 430.5 129.5C431.35 128.932 432.658 128.243 432.658 126.447L431.464 123.135Z" fill="white"/>
<path d="M29.2969 40.5137V60.5527H60.498C61.9043 60.5527 62.959 60.7871 63.6621 61.2559C65.1855 62.3106 66.7676 63.5703 68.4082 65.0352C70.0488 66.5 71.7773 68.2578 73.5938 70.3086C74.1797 71.0703 74.4727 71.6855 74.4727 72.1543C74.4727 72.6816 74.1797 73.2676 73.5938 73.9121C71.7773 75.9629 70.0488 77.7207 68.4082 79.1855C66.7676 80.6504 65.1855 81.9102 63.6621 82.9648C62.8418 83.4336 61.7871 83.668 60.498 83.668H29.2969V127.877C29.2969 129.635 28.916 130.865 28.1543 131.568C27.4512 132.213 26.2207 132.535 24.4629 132.535H5.74219C3.98438 132.535 2.72461 132.213 1.96289 131.568C1.25977 130.865 0.908203 129.635 0.908203 127.877V30.0547C0.908203 24.1953 1.43555 19.5664 2.49023 16.168C3.60352 12.7109 5.71289 10.25 8.81836 8.78516C11.9824 7.26172 16.582 6.5 22.6172 6.5H64.1016C65.5078 6.5 66.5625 6.73438 67.2656 7.20312C68.7891 8.25781 70.3711 9.51758 72.0117 10.9824C73.6523 12.4473 75.3809 14.2051 77.1973 16.2559C77.7832 17.0176 78.0762 17.6328 78.0762 18.1016C78.0762 18.6289 77.7832 19.2148 77.1973 19.8594C75.3809 21.9102 73.6523 23.668 72.0117 25.1328C70.3711 26.5977 68.7891 27.8574 67.2656 28.9121C66.4453 29.3809 65.3906 29.6152 64.1016 29.6152H39.3164C35.4492 29.6152 32.8125 30.4356 31.4062 32.0762C30 33.7168 29.2969 36.5293 29.2969 40.5137Z" fill="white"/>
<path d="M127.822 92.373C127.822 101.982 126.826 110.215 124.834 117.07C122.9 123.926 120.205 129.756 116.748 134.561C113.35 139.365 109.453 143.467 105.059 146.865C100.723 150.322 96.1523 153.457 91.3477 156.27C89.3555 157.383 87.7734 157.002 86.6016 155.127L76.7578 139.395C75.4688 137.285 75.9082 135.586 78.0762 134.297C81.8848 132.07 85.4004 129.316 88.623 126.035C91.8457 122.695 94.4531 118.359 96.4453 113.027C98.4375 107.637 99.4336 100.752 99.4336 92.373V17.1387C99.4336 15.4395 99.7266 14.1504 100.312 13.2715C102.949 9.4043 106.641 5.33203 111.387 1.05469C112.266 0.351562 113.027 0 113.672 0C114.375 0 115.107 0.351562 115.869 1.05469C118.447 3.28125 120.615 5.41992 122.373 7.4707C124.131 9.46289 125.654 11.3965 126.943 13.2715C127.529 14.209 127.822 15.4981 127.822 17.1387V92.373Z" fill="white"/>
<path d="M213.205 132.51C201.018 132.51 190.412 130.166 181.389 125.479C172.365 120.791 165.363 113.731 160.383 104.297C155.461 94.8636 153 83.0863 153 68.9652C153 46.5238 158.479 29.7953 169.436 18.7796C180.393 7.70542 195.656 2.1683 215.227 2.1683C233.566 2.1683 248.068 7.58823 258.732 18.4281C269.396 29.2093 274.729 45.2054 274.729 66.4164C274.729 81.4164 272.238 93.8089 267.258 103.594C262.277 113.321 255.188 120.586 245.988 125.391C236.789 130.137 225.861 132.51 213.205 132.51ZM213.732 108.78C224.279 108.78 232.102 105 237.199 97.4417C242.297 89.8831 244.846 80.0687 244.846 67.9984C244.846 53.9945 242.443 43.4769 237.639 36.4457C232.834 29.4144 225.1 25.8988 214.436 25.8988C193.4 25.8988 182.883 39.7562 182.883 67.471C182.883 79.8343 185.402 89.8246 190.441 97.4417C195.539 105 203.303 108.78 213.732 108.78Z" fill="white"/>
<path d="M375.465 35.9457C329 37.5 321.323 66.6463 322.523 88.6463L322.421 87.2389L322.467 79.3344L320.467 42.6687C320.587 40.2629 321.1 36.9635 322.467 33.4056C326.594 22.6644 338.508 9.56711 370.921 11.5894C373.496 11.7501 375.465 13.9177 375.465 16.4978V35.9457Z" fill="white"/>
<path d="M296.303 9.05138C295.745 9.65081 295.467 10.53 295.467 11.6889V130C295.467 131.105 296.362 132 297.467 132L320.467 131.976C321.562 131.976 322.954 131.095 322.967 130L322.523 88.6463L322.421 87.2389C322.243 88.9622 322.568 90.5885 322.467 92.5V79.3344L320.467 42.6687C320.587 40.2629 321.1 36.9635 322.467 33.4056V11.6889C322.467 10.5699 322.188 9.69077 321.631 9.05138C320.405 7.7726 318.956 6.45385 317.284 5.09515C315.612 3.69648 313.55 2.23787 311.098 0.719315C310.374 0.239772 309.677 0 309.009 0C308.396 0 307.671 0.239772 306.835 0.719315C302.321 3.63654 298.81 6.41389 296.303 9.05138Z" fill="white"/>
</svg>
