<svg width="1236" height="788" viewBox="0 0 1236 788" fill="none" xmlns="http://www.w3.org/2000/svg">
<path d="M84.5 402L100 550M84.5 402L272.5 243M84.5 402L223.341 393.293M84.5 402L14.5 498L4.78399 621.094M86.68 716.134L70 767L64.5 780.5L4 621.928M86.68 716.134L310.121 477.972L100 550M86.68 716.134L100 550M86.68 716.134L4 621.928M86.68 716.134L131.778 780.5M86.68 716.134L223.341 780.5L310.121 609L223.341 393.293M100 550L223.341 393.293M100 550L4.78399 621.094M100 550L309.438 780.5M4 621.928L4.78399 621.094M223.341 393.293L272.5 243M223.341 393.293L310.121 417.109M223.341 393.293L310.121 372.652M272.5 243L339.5 281.5M570 780.5L649.724 678.557V780.5M747.436 678.557L779.552 711.37M779.552 711.37V780.5M779.552 711.37L814.4 678.557M779.552 711.37V678.557M779.552 711.37L732.404 780.5M842.416 678.557L814.4 780.5M564 54L534 120.73M564 54L596.426 120.73M564 54L683.889 8M564 54L620.5 8M596.426 120.73L683.889 8M596.426 120.73L707.5 128M683.889 8L707.5 128M683.889 8L954.956 128M1033.26 203.5L707.5 281.5L771 219.5M1033.26 203.5L1236 247.5M1033.26 203.5L1163.5 5M1033.26 203.5L830.5 8L771 219.5M1033.26 203.5L1230.98 404M1033.26 203.5L1177 181.205L1236 107.671M954.956 128L771 219.5M954.956 128L1236 5M954.956 128L1033.26 5L1230.98 219.5M707.5 128L771 219.5" stroke="white" stroke-width="5.5"/>
<path d="M84.5 402L100 550M84.5 402L272.5 243M84.5 402L223.341 393.293M84.5 402L14.5 498L4.78399 621.094M86.68 716.134L70 767L64.5 780.5L4 621.928M86.68 716.134L310.121 477.972L100 550M86.68 716.134L100 550M86.68 716.134L4 621.928M86.68 716.134L131.778 780.5M86.68 716.134L223.341 780.5L310.121 609L223.341 393.293M100 550L223.341 393.293M100 550L4.78399 621.094M100 550L309.438 780.5M4 621.928L4.78399 621.094M223.341 393.293L272.5 243M223.341 393.293L310.121 417.109M223.341 393.293L310.121 372.652M272.5 243L339.5 281.5M570 780.5L649.724 678.557V780.5M747.436 678.557L779.552 711.37M779.552 711.37V780.5M779.552 711.37L814.4 678.557M779.552 711.37V678.557M779.552 711.37L732.404 780.5M842.416 678.557L814.4 780.5M564 54L534 120.73M564 54L596.426 120.73M564 54L683.889 8M564 54L620.5 8M596.426 120.73L683.889 8M596.426 120.73L707.5 128M683.889 8L707.5 128M683.889 8L954.956 128M1033.26 203.5L707.5 281.5L771 219.5M1033.26 203.5L1236 247.5M1033.26 203.5L1163.5 5M1033.26 203.5L830.5 8L771 219.5M1033.26 203.5L1230.98 404M1033.26 203.5L1177 181.205L1236 107.671M954.956 128L771 219.5M954.956 128L1236 5M954.956 128L1033.26 5L1230.98 219.5M707.5 128L771 219.5" stroke="url(#paint0_linear_25_2)" stroke-width="5.5"/>
<defs>
<linearGradient id="paint0_linear_25_2" x1="1344" y1="131.5" x2="-101.5" y2="546" gradientUnits="userSpaceOnUse">
<stop stop-color="#3cbced" stop-opacity="1"/>
<stop offset="1" stop-color="#3cbced" stop-opacity="0.8"/>
</linearGradient>
</defs>
</svg>