<svg width="66" height="66" viewBox="0 0 66 66" fill="none" xmlns="http://www.w3.org/2000/svg">
<circle cx="33" cy="33" r="33" fill="#AAAAB4"/>
<path fill-rule="evenodd" clip-rule="evenodd" d="M53.9996 58.4573C61.3289 52.4046 66 43.2478 66 33C66 14.7746 51.2254 0 33 0C14.7746 0 0 14.7746 0 33C0 42.8385 4.30547 51.6714 11.1351 57.7174C12.3391 53.7753 21.4451 44.5 32.5 44.5C44.3321 44.5 53.9319 54.4294 53.9996 58.4573ZM32.5001 40C39.956 40 46.0001 33.9558 46.0001 26.5C46.0001 19.0442 39.956 13 32.5001 13C25.0443 13 19.0001 19.0442 19.0001 26.5C19.0001 33.9558 25.0443 40 32.5001 40Z" fill="#DCDBDF"/>
</svg>
