<svg width="20" height="20" viewBox="0 0 20 20" fill="none" xmlns="http://www.w3.org/2000/svg">
<path d="M0.509233 20V6.36364H4.29119V20H0.509233ZM2.40909 4.60582C1.84683 4.60582 1.36447 4.41939 0.962003 4.04652C0.565459 3.66773 0.367188 3.21496 0.367188 2.68821C0.367188 2.16738 0.565459 1.72053 0.962003 1.34766C1.36447 0.968868 1.84683 0.779473 2.40909 0.779473C2.97135 0.779473 3.45076 0.968868 3.8473 1.34766C4.24976 1.72053 4.45099 2.16738 4.45099 2.68821C4.45099 3.21496 4.24976 3.66773 3.8473 4.04652C3.45076 4.41939 2.97135 4.60582 2.40909 4.60582ZM11.1027 12.1165V20H7.32076V6.36364H10.9252V8.76953H11.085C11.3868 7.97644 11.8928 7.34908 12.6031 6.88743C13.3133 6.41986 14.1744 6.18608 15.1865 6.18608C16.1335 6.18608 16.9591 6.39323 17.6634 6.80753C18.3678 7.22183 18.9152 7.81368 19.3058 8.5831C19.6965 9.34659 19.8918 10.258 19.8918 11.3175V20H16.1098V11.9922C16.1157 11.1577 15.9027 10.5066 15.4706 10.0391C15.0386 9.56558 14.4437 9.32884 13.6862 9.32884C13.1772 9.32884 12.7274 9.43833 12.3367 9.65731C11.952 9.8763 11.6502 10.1959 11.4312 10.6161C11.2181 11.0304 11.1086 11.5305 11.1027 12.1165Z" fill="white"/>
</svg>
